<?xml version="1.0" encoding="UTF-8"?>
<svg xmlns="http://www.w3.org/2000/svg" viewBox="0 0 960 540">
  <rect width="960" height="540" rx="42" fill="#f2eadf"/>
  <circle cx="60" cy="4" r="48" fill="#8cb4ec" opacity=".62"/><circle cx="60" cy="536" r="48" fill="#8cb4ec" opacity=".62"/><circle cx="156" cy="4" r="48" fill="#8cb4ec" opacity=".62"/><circle cx="156" cy="536" r="48" fill="#8cb4ec" opacity=".62"/><circle cx="252" cy="4" r="48" fill="#8cb4ec" opacity=".62"/><circle cx="252" cy="536" r="48" fill="#8cb4ec" opacity=".62"/><circle cx="348" cy="4" r="48" fill="#8cb4ec" opacity=".62"/><circle cx="348" cy="536" r="48" fill="#8cb4ec" opacity=".62"/><circle cx="444" cy="4" r="48" fill="#8cb4ec" opacity=".62"/><circle cx="444" cy="536" r="48" fill="#8cb4ec" opacity=".62"/><circle cx="540" cy="4" r="48" fill="#8cb4ec" opacity=".62"/><circle cx="540" cy="536" r="48" fill="#8cb4ec" opacity=".62"/><circle cx="636" cy="4" r="48" fill="#8cb4ec" opacity=".62"/><circle cx="636" cy="536" r="48" fill="#8cb4ec" opacity=".62"/><circle cx="732" cy="4" r="48" fill="#8cb4ec" opacity=".62"/><circle cx="732" cy="536" r="48" fill="#8cb4ec" opacity=".62"/><circle cx="828" cy="4" r="48" fill="#8cb4ec" opacity=".62"/><circle cx="828" cy="536" r="48" fill="#8cb4ec" opacity=".62"/><circle cx="924" cy="4" r="48" fill="#8cb4ec" opacity=".62"/><circle cx="924" cy="536" r="48" fill="#8cb4ec" opacity=".62"/>
  <circle cx="832" cy="124" r="132" fill="#d7e8ff" opacity=".82"/>
  <circle cx="740" cy="418" r="162" fill="#f8f4ea" opacity=".74"/>
  <path d="M122 118h298" stroke="#d9cfc0" stroke-width="10" stroke-linecap="round"/>
  <path d="M118 426h220" stroke="#d9cfc0" stroke-width="10" stroke-linecap="round"/>
  <circle cx="779" cy="221" r="2.8" fill="#5b95e6" opacity=".26"/><circle cx="156" cy="318" r="1.8" fill="#5b95e6" opacity=".26"/><circle cx="293" cy="415" r="1.8" fill="#5b95e6" opacity=".26"/><circle cx="430" cy="128" r="2.8" fill="#5b95e6" opacity=".26"/><circle cx="567" cy="225" r="1.8" fill="#5b95e6" opacity=".26"/><circle cx="704" cy="322" r="1.8" fill="#5b95e6" opacity=".26"/><circle cx="841" cy="419" r="2.8" fill="#5b95e6" opacity=".26"/><circle cx="218" cy="132" r="1.8" fill="#5b95e6" opacity=".26"/><circle cx="355" cy="229" r="1.8" fill="#5b95e6" opacity=".26"/><circle cx="492" cy="326" r="2.8" fill="#5b95e6" opacity=".26"/><circle cx="629" cy="423" r="1.8" fill="#5b95e6" opacity=".26"/><circle cx="766" cy="136" r="1.8" fill="#5b95e6" opacity=".26"/>
  <text x="96" y="120" fill="#5b95e6" font-family="'PingFang SC','Microsoft YaHei',sans-serif" font-size="30" font-weight="800" letter-spacing="6">BINARY SEARCH</text>
  <text x="106" y="258" fill="#6fa5ea" font-family="'PingFang SC','Microsoft YaHei',sans-serif" font-size="126" font-weight="900">二分</text>
  <text x="106" y="386" fill="#6fa5ea" font-family="'PingFang SC','Microsoft YaHei',sans-serif" font-size="126" font-weight="900">搜索</text>
  <text x="102" y="474" fill="#5f6f85" font-family="'JetBrains Mono','Consolas',monospace" font-size="26" font-weight="700">MONOTONIC / CHECK</text>
</svg>