<?xml version="1.0" encoding="UTF-8"?>
<svg xmlns="http://www.w3.org/2000/svg" viewBox="0 0 960 540">
  <rect width="960" height="540" rx="42" fill="#f2eadf"/>
  <circle cx="60" cy="4" r="48" fill="#8cb4ec" opacity=".62"/><circle cx="60" cy="536" r="48" fill="#8cb4ec" opacity=".62"/><circle cx="156" cy="4" r="48" fill="#8cb4ec" opacity=".62"/><circle cx="156" cy="536" r="48" fill="#8cb4ec" opacity=".62"/><circle cx="252" cy="4" r="48" fill="#8cb4ec" opacity=".62"/><circle cx="252" cy="536" r="48" fill="#8cb4ec" opacity=".62"/><circle cx="348" cy="4" r="48" fill="#8cb4ec" opacity=".62"/><circle cx="348" cy="536" r="48" fill="#8cb4ec" opacity=".62"/><circle cx="444" cy="4" r="48" fill="#8cb4ec" opacity=".62"/><circle cx="444" cy="536" r="48" fill="#8cb4ec" opacity=".62"/><circle cx="540" cy="4" r="48" fill="#8cb4ec" opacity=".62"/><circle cx="540" cy="536" r="48" fill="#8cb4ec" opacity=".62"/><circle cx="636" cy="4" r="48" fill="#8cb4ec" opacity=".62"/><circle cx="636" cy="536" r="48" fill="#8cb4ec" opacity=".62"/><circle cx="732" cy="4" r="48" fill="#8cb4ec" opacity=".62"/><circle cx="732" cy="536" r="48" fill="#8cb4ec" opacity=".62"/><circle cx="828" cy="4" r="48" fill="#8cb4ec" opacity=".62"/><circle cx="828" cy="536" r="48" fill="#8cb4ec" opacity=".62"/><circle cx="924" cy="4" r="48" fill="#8cb4ec" opacity=".62"/><circle cx="924" cy="536" r="48" fill="#8cb4ec" opacity=".62"/>
  <circle cx="832" cy="124" r="132" fill="#d7e8ff" opacity=".82"/>
  <circle cx="740" cy="418" r="162" fill="#f8f4ea" opacity=".74"/>
  <path d="M122 118h298" stroke="#d9cfc0" stroke-width="10" stroke-linecap="round"/>
  <path d="M118 426h220" stroke="#d9cfc0" stroke-width="10" stroke-linecap="round"/>
  <circle cx="673" cy="139" r="2.8" fill="#5b95e6" opacity=".26"/><circle cx="810" cy="236" r="1.8" fill="#5b95e6" opacity=".26"/><circle cx="187" cy="333" r="1.8" fill="#5b95e6" opacity=".26"/><circle cx="324" cy="430" r="2.8" fill="#5b95e6" opacity=".26"/><circle cx="461" cy="143" r="1.8" fill="#5b95e6" opacity=".26"/><circle cx="598" cy="240" r="1.8" fill="#5b95e6" opacity=".26"/><circle cx="735" cy="337" r="2.8" fill="#5b95e6" opacity=".26"/><circle cx="112" cy="434" r="1.8" fill="#5b95e6" opacity=".26"/><circle cx="249" cy="147" r="1.8" fill="#5b95e6" opacity=".26"/><circle cx="386" cy="244" r="2.8" fill="#5b95e6" opacity=".26"/><circle cx="523" cy="341" r="1.8" fill="#5b95e6" opacity=".26"/><circle cx="660" cy="438" r="1.8" fill="#5b95e6" opacity=".26"/>
  <text x="96" y="120" fill="#5b95e6" font-family="'PingFang SC','Microsoft YaHei',sans-serif" font-size="30" font-weight="800" letter-spacing="6">TEMPLATE</text>
  <text x="106" y="258" fill="#6fa5ea" font-family="'PingFang SC','Microsoft YaHei',sans-serif" font-size="126" font-weight="900">模板</text>
  <text x="106" y="386" fill="#6fa5ea" font-family="'PingFang SC','Microsoft YaHei',sans-serif" font-size="126" font-weight="900">推导</text>
  <text x="102" y="474" fill="#5f6f85" font-family="'JetBrains Mono','Consolas',monospace" font-size="26" font-weight="700">AUTO / DECLTYPE / DEDUCE</text>
</svg>