<?xml version="1.0" encoding="UTF-8"?>
<svg xmlns="http://www.w3.org/2000/svg" viewBox="0 0 960 540">
  <rect width="960" height="540" rx="42" fill="#0f1622"/>
  <circle cx="154" cy="88" r="126" fill="#1f6758" opacity=".46"/>
  <circle cx="844" cy="412" r="168" fill="#203f4b" opacity=".52"/>
  <circle cx="780" cy="112" r="112" fill="#21315e" opacity=".34"/>
  <g opacity=".72">
    <circle cx="164" cy="124" r="5" fill="#6fd2b6"/>
    <circle cx="420" cy="84" r="4" fill="#f1d27d"/>
    <circle cx="722" cy="142" r="5" fill="#77b5ff"/>
    <circle cx="814" cy="296" r="4" fill="#6fd2b6"/>
    <circle cx="278" cy="420" r="5" fill="#77b5ff"/>
    <circle cx="626" cy="442" r="4" fill="#f1d27d"/>
  </g>
  <path d="M164 126L420 84L722 142L814 296L626 442L278 420L164 126Z" fill="none" stroke="#335f72" stroke-width="8" stroke-linejoin="round" opacity=".72"/>
  <path d="M278 420L420 84M420 84L626 442M420 84L814 296" fill="none" stroke="#4f7cc7" stroke-width="6" opacity=".36"/>
  <rect x="192" y="164" width="398" height="182" rx="28" fill="#162633" stroke="#315870" stroke-width="8"/>
  <rect x="242" y="214" width="206" height="18" rx="9" fill="#dce6df" opacity=".88"/>
  <rect x="242" y="256" width="284" height="14" rx="7" fill="#96b5aa" opacity=".92"/>
  <rect x="242" y="294" width="168" height="14" rx="7" fill="#6fd2b6" opacity=".92"/>
  <circle cx="704" cy="238" r="46" fill="#294b61"/>
  <path d="M636 344c0-38 31-68 68-68s68 30 68 68" fill="#294b61"/>
  <text x="82" y="122" fill="#74d8bf" font-family="'JetBrains Mono','Consolas',monospace" font-size="28" font-weight="800" letter-spacing="5">SITE MAP</text>
  <text x="96" y="454" fill="#f2f5ef" font-family="'PingFang SC','Microsoft YaHei',sans-serif" font-size="124" font-weight="900">内容</text>
  <text x="252" y="534" fill="#f2f5ef" font-family="'PingFang SC','Microsoft YaHei',sans-serif" font-size="124" font-weight="900">地图</text>
  <text x="572" y="486" fill="#9fbab2" font-family="'JetBrains Mono','Consolas',monospace" font-size="28" font-weight="700">NOTE / CATEGORY / ARCHIVE</text>
</svg>
