<svg xmlns="http://www.w3.org/2000/svg" viewBox="0 0 960 540">
  <defs>
    <linearGradient id="dpLine" x1="0" x2="1">
      <stop offset="0%" stop-color="#ffb347"/>
      <stop offset="100%" stop-color="#ffd26f"/>
    </linearGradient>
  </defs>
  <rect width="960" height="540" rx="48" fill="#10131d"/>
  <circle cx="180" cy="110" r="142" fill="#4d75ff" opacity=".16"/>
  <circle cx="784" cy="422" r="170" fill="#1fd8a9" opacity=".12"/>
  <rect x="166" y="146" width="628" height="250" rx="34" fill="#151b2a" stroke="#2d3f67" stroke-width="4"/>
  <rect x="224" y="194" width="126" height="84" rx="22" fill="#1c2740" stroke="#5c84ff"/>
  <rect x="418" y="194" width="126" height="84" rx="22" fill="#1c2740" stroke="#5c84ff"/>
  <rect x="612" y="194" width="126" height="84" rx="22" fill="#1d2332" stroke="#8be0c9"/>
  <rect x="322" y="312" width="126" height="84" rx="22" fill="#1d2436" stroke="#5c84ff"/>
  <rect x="516" y="312" width="126" height="84" rx="22" fill="#1d2436" stroke="#8be0c9"/>
  <path d="M350 236h68M544 236h68M384 312l34-34M612 278l-34 34" stroke="url(#dpLine)" stroke-width="14" stroke-linecap="round"/>
  <text x="254" y="246" fill="#edf4ff" font-family="'PingFang SC','Microsoft YaHei',sans-serif" font-size="28" font-weight="700">dp[i]</text>
  <text x="448" y="246" fill="#edf4ff" font-family="'PingFang SC','Microsoft YaHei',sans-serif" font-size="28" font-weight="700">dp[j]</text>
  <text x="635" y="246" fill="#e2fff6" font-family="'PingFang SC','Microsoft YaHei',sans-serif" font-size="28" font-weight="700">选择</text>
  <text x="356" y="365" fill="#edf4ff" font-family="'PingFang SC','Microsoft YaHei',sans-serif" font-size="28" font-weight="700">状态</text>
  <text x="548" y="365" fill="#e2fff6" font-family="'PingFang SC','Microsoft YaHei',sans-serif" font-size="28" font-weight="700">答案</text>
  <rect x="120" y="84" width="270" height="54" rx="27" fill="#355fff" opacity=".22"/>
  <text x="142" y="119" fill="#f4f7ff" font-family="'PingFang SC','Microsoft YaHei',sans-serif" font-size="30" font-weight="700">动态规划</text>
</svg>
