<svg xmlns="http://www.w3.org/2000/svg" viewBox="0 0 960 540">
  <defs>
    <linearGradient id="g1" x1="0" x2="1">
      <stop offset="0%" stop-color="#3f6bff"/>
      <stop offset="100%" stop-color="#7d5cff"/>
    </linearGradient>
    <linearGradient id="g2" x1="0" x2="1">
      <stop offset="0%" stop-color="#19d2c6"/>
      <stop offset="100%" stop-color="#29f0a8"/>
    </linearGradient>
  </defs>
  <rect width="960" height="540" rx="48" fill="#11141f"/>
  <circle cx="176" cy="118" r="136" fill="#4c73ff" opacity=".18"/>
  <circle cx="792" cy="424" r="164" fill="#925dff" opacity=".14"/>
  <circle cx="236" cy="326" r="64" fill="#162033" stroke="#6d9aff" stroke-width="12"/>
  <circle cx="480" cy="198" r="72" fill="#172038" stroke="#88a8ff" stroke-width="12"/>
  <circle cx="724" cy="312" r="64" fill="#211b35" stroke="#c28fff" stroke-width="12"/>
  <circle cx="490" cy="390" r="68" fill="#112c2a" stroke="#4de2bd" stroke-width="12"/>
  <path d="M290 302 420 222M544 226 658 288M294 350 420 378M654 338 560 372" stroke="#f0b84d" stroke-width="16" stroke-linecap="round"/>
  <text x="210" y="334" fill="#f8fbff" font-family="'PingFang SC','Microsoft YaHei',sans-serif" font-size="30" font-weight="700">DFS</text>
  <text x="418" y="206" fill="#dfe8ff" font-family="'PingFang SC','Microsoft YaHei',sans-serif" font-size="30" font-weight="700">回溯</text>
  <text x="684" y="320" fill="#f9f2ff" font-family="'PingFang SC','Microsoft YaHei',sans-serif" font-size="28" font-weight="700">图</text>
  <text x="456" y="400" fill="#d7fff4" font-family="'PingFang SC','Microsoft YaHei',sans-serif" font-size="28" font-weight="700">拓扑</text>
  <rect x="116" y="82" width="244" height="52" rx="24" fill="url(#g1)" opacity=".2"/>
  <text x="136" y="117" fill="#eef3ff" font-family="'PingFang SC','Microsoft YaHei',sans-serif" font-size="30" font-weight="700">图遍历 / 拓扑</text>
  <rect x="566" y="112" width="210" height="20" rx="10" fill="url(#g2)" opacity=".5"/>
</svg>
