<svg xmlns="http://www.w3.org/2000/svg" viewBox="0 0 960 540">
  <defs>
    <linearGradient id="bg" x1="118" y1="44" x2="844" y2="516" gradientUnits="userSpaceOnUse">
      <stop stop-color="#191823"/>
      <stop offset=".52" stop-color="#14131d"/>
      <stop offset="1" stop-color="#0d0d14"/>
    </linearGradient>
    <linearGradient id="track" x1="160" y1="160" x2="786" y2="352" gradientUnits="userSpaceOnUse">
      <stop stop-color="#f4b94a"/>
      <stop offset=".45" stop-color="#d26b3d"/>
      <stop offset="1" stop-color="#4f7cff"/>
    </linearGradient>
  </defs>
  <rect width="960" height="540" rx="44" fill="url(#bg)"/>
  <circle cx="176" cy="110" r="146" fill="#f4b94a" opacity=".1"/>
  <circle cx="790" cy="430" r="166" fill="#4f7cff" opacity=".12"/>
  <path d="M174 344c82-110 192-168 306-168 92 0 176 32 244 92" fill="none" stroke="url(#track)" stroke-width="16" stroke-linecap="round"/>
  <path d="M696 240 780 262l-52 68" fill="none" stroke="#f4b94a" stroke-width="16" stroke-linecap="round" stroke-linejoin="round"/>
  <rect x="146" y="190" width="170" height="116" rx="24" fill="#121826" stroke="#3c2d28"/>
  <rect x="392" y="122" width="180" height="116" rx="24" fill="#121826" stroke="#2e3f70"/>
  <rect x="636" y="248" width="176" height="116" rx="24" fill="#121826" stroke="#375a55"/>
  <text x="176" y="236" fill="#f4b94a" font-family="Arial, sans-serif" font-size="28" font-weight="800">BINARY</text>
  <text x="176" y="272" fill="#f2f4f8" font-family="Arial, sans-serif" font-size="28" font-weight="800">WINDOW</text>
  <text x="424" y="170" fill="#7ea7ff" font-family="Arial, sans-serif" font-size="28" font-weight="800">BACKTRACK</text>
  <text x="424" y="206" fill="#f2f4f8" font-family="Arial, sans-serif" font-size="28" font-weight="800">GRAPH</text>
  <text x="672" y="298" fill="#46d1a2" font-family="Arial, sans-serif" font-size="28" font-weight="800">DP</text>
  <text x="672" y="334" fill="#f2f4f8" font-family="Arial, sans-serif" font-size="28" font-weight="800">MONO QUEUE</text>
  <text x="122" y="98" fill="#f2f4f8" font-family="Arial, sans-serif" font-size="30" font-weight="800">ALGORITHM NOTEBOOK</text>
</svg>
