<svg xmlns="http://www.w3.org/2000/svg" viewBox="0 0 960 540">
  <defs>
    <linearGradient id="bg" x1="108" y1="48" x2="836" y2="514" gradientUnits="userSpaceOnUse">
      <stop stop-color="#141824"/>
      <stop offset=".55" stop-color="#101625"/>
      <stop offset="1" stop-color="#0b1020"/>
    </linearGradient>
    <linearGradient id="chip" x1="290" y1="118" x2="650" y2="426" gradientUnits="userSpaceOnUse">
      <stop stop-color="#5f8cff"/>
      <stop offset=".55" stop-color="#3054c9"/>
      <stop offset="1" stop-color="#1f318d"/>
    </linearGradient>
  </defs>
  <rect width="960" height="540" rx="44" fill="url(#bg)"/>
  <circle cx="172" cy="112" r="164" fill="#4d7cff" opacity=".12"/>
  <circle cx="790" cy="420" r="170" fill="#f4b94a" opacity=".12"/>
  <g opacity=".34" stroke="#2d406e">
    <path d="M126 152h172"/>
    <path d="M126 196h124"/>
    <path d="M126 240h154"/>
    <path d="M680 158h162"/>
    <path d="M722 202h120"/>
    <path d="M668 246h174"/>
  </g>
  <path d="M480 90 672 200v220L480 530 288 420V200L480 90Z" fill="#18284e" stroke="#3650a8" stroke-width="10"/>
  <path d="M480 144 626 228v164L480 476 334 392V228l146-84Z" fill="url(#chip)"/>
  <text x="370" y="308" fill="#f7f8fb" font-family="Arial, sans-serif" font-size="102" font-weight="900">C++</text>
  <rect x="140" y="386" width="216" height="52" rx="26" fill="#111728" stroke="#273960"/>
  <text x="182" y="420" fill="#f4b94a" font-family="Arial, sans-serif" font-size="28" font-weight="800">CPP NOTES</text>
</svg>
