<svg xmlns="http://www.w3.org/2000/svg" viewBox="0 0 960 540">
  <defs>
    <linearGradient id="bg" x1="122" y1="44" x2="842" y2="508" gradientUnits="userSpaceOnUse">
      <stop stop-color="#171b2a"/>
      <stop offset=".55" stop-color="#0f1627"/>
      <stop offset="1" stop-color="#0b1020"/>
    </linearGradient>
    <linearGradient id="node" x1="184" y1="132" x2="774" y2="398" gradientUnits="userSpaceOnUse">
      <stop stop-color="#5d8fff"/>
      <stop offset=".58" stop-color="#3053cb"/>
      <stop offset="1" stop-color="#18307c"/>
    </linearGradient>
  </defs>
  <rect width="960" height="540" rx="44" fill="url(#bg)"/>
  <circle cx="172" cy="102" r="154" fill="#4b7eff" opacity=".12"/>
  <circle cx="802" cy="434" r="162" fill="#f4b94a" opacity=".08"/>
  <rect x="120" y="140" width="168" height="110" rx="24" fill="#12192c" stroke="#2b3c65"/>
  <rect x="396" y="72" width="168" height="110" rx="24" fill="#12192c" stroke="#2b3c65"/>
  <rect x="672" y="140" width="168" height="110" rx="24" fill="#12192c" stroke="#2b3c65"/>
  <rect x="258" y="334" width="182" height="110" rx="24" fill="#12192c" stroke="#2b3c65"/>
  <rect x="520" y="334" width="182" height="110" rx="24" fill="#12192c" stroke="#2b3c65"/>
  <g stroke="url(#node)" stroke-width="10" stroke-linecap="round" opacity=".9">
    <path d="M288 194h108"/>
    <path d="M564 128h108"/>
    <path d="M204 250 348 334"/>
    <path d="M756 250 612 334"/>
    <path d="M480 182 350 334"/>
    <path d="M480 182 610 334"/>
    <path d="M440 388h80"/>
  </g>
  <text x="164" y="204" fill="#f2f4f8" font-family="Arial, sans-serif" font-size="28" font-weight="800">RPC</text>
  <text x="444" y="136" fill="#f4b94a" font-family="Arial, sans-serif" font-size="28" font-weight="800">ZK</text>
  <text x="722" y="204" fill="#f2f4f8" font-family="Arial, sans-serif" font-size="28" font-weight="800">CHAT</text>
  <text x="312" y="398" fill="#f2f4f8" font-family="Arial, sans-serif" font-size="28" font-weight="800">REDIS</text>
  <text x="566" y="398" fill="#f2f4f8" font-family="Arial, sans-serif" font-size="28" font-weight="800">MYSQL</text>
  <text x="120" y="98" fill="#f2f4f8" font-family="Arial, sans-serif" font-size="30" font-weight="800">DISTRIBUTED COMMUNICATION PLATFORM</text>
</svg>
