<svg xmlns="http://www.w3.org/2000/svg" viewBox="0 0 960 540">
  <defs>
    <linearGradient id="bg" x1="104" y1="48" x2="858" y2="512" gradientUnits="userSpaceOnUse">
      <stop stop-color="#19181f"/>
      <stop offset=".48" stop-color="#1f1620"/>
      <stop offset="1" stop-color="#120f18"/>
    </linearGradient>
    <linearGradient id="ground" x1="104" y1="356" x2="846" y2="490" gradientUnits="userSpaceOnUse">
      <stop stop-color="#3a2c18"/>
      <stop offset=".45" stop-color="#5a341b"/>
      <stop offset="1" stop-color="#8a4a18"/>
    </linearGradient>
  </defs>
  <rect width="960" height="540" rx="44" fill="url(#bg)"/>
  <circle cx="818" cy="92" r="122" fill="#ffb23f" opacity=".16"/>
  <circle cx="182" cy="430" r="164" fill="#3e6eff" opacity=".12"/>
  <path d="M96 378h768v78H96z" fill="url(#ground)"/>
  <g opacity=".44">
    <rect x="134" y="332" width="72" height="46" rx="10" fill="#22355f"/>
    <rect x="206" y="332" width="72" height="46" rx="10" fill="#2a6a55"/>
    <rect x="278" y="332" width="72" height="46" rx="10" fill="#22355f"/>
    <rect x="350" y="332" width="72" height="46" rx="10" fill="#2a6a55"/>
  </g>
  <path d="M192 188c74-58 180-58 254 0 74-58 180-58 254 0 78 62 86 180 18 251-54 56-128 42-194-8l-52-40H388l-52 40c-66 50-140 64-194 8-68-71-60-189 18-251Z" fill="#111827"/>
  <circle cx="318" cy="294" r="58" fill="#dfe6f4"/>
  <rect x="302" y="254" width="32" height="80" rx="10" fill="#111827"/>
  <rect x="278" y="278" width="80" height="32" rx="10" fill="#111827"/>
  <circle cx="636" cy="258" r="20" fill="#5fa4ff"/>
  <circle cx="690" cy="314" r="20" fill="#ff7d7b"/>
  <circle cx="636" cy="314" r="20" fill="#33d7a0"/>
  <circle cx="690" cy="258" r="20" fill="#f5c04e"/>
  <text x="118" y="92" fill="#f2f4f8" font-family="Arial, sans-serif" font-size="30" font-weight="800">TOWER DEFENSE DUO</text>
</svg>
