<svg xmlns="http://www.w3.org/2000/svg" viewBox="0 0 960 540">
  <defs>
    <linearGradient id="bg" x1="126" y1="42" x2="842" y2="516" gradientUnits="userSpaceOnUse">
      <stop stop-color="#171a28"/>
      <stop offset=".58" stop-color="#131827"/>
      <stop offset="1" stop-color="#0b1020"/>
    </linearGradient>
    <linearGradient id="panel" x1="186" y1="132" x2="756" y2="412" gradientUnits="userSpaceOnUse">
      <stop stop-color="#355edb"/>
      <stop offset=".54" stop-color="#243f98"/>
      <stop offset="1" stop-color="#16255d"/>
    </linearGradient>
  </defs>
  <rect width="960" height="540" rx="44" fill="url(#bg)"/>
  <circle cx="814" cy="94" r="130" fill="#4d7cff" opacity=".16"/>
  <circle cx="156" cy="432" r="158" fill="#f4b94a" opacity=".08"/>
  <rect x="120" y="106" width="720" height="332" rx="34" fill="#0f1526" stroke="rgba(255,255,255,.08)"/>
  <rect x="164" y="154" width="302" height="232" rx="28" fill="url(#panel)"/>
  <rect x="496" y="154" width="300" height="92" rx="24" fill="#151d33" stroke="#2c3d66"/>
  <rect x="496" y="268" width="300" height="118" rx="24" fill="#151d33" stroke="#2c3d66"/>
  <rect x="208" y="202" width="214" height="18" rx="9" fill="#d7e2ff" opacity=".94"/>
  <rect x="208" y="242" width="166" height="14" rx="7" fill="#bfd2ff" opacity=".82"/>
  <rect x="208" y="276" width="126" height="14" rx="7" fill="#f4b94a"/>
  <circle cx="670" cy="318" r="44" fill="#273b77"/>
  <path d="M648 319h44M670 297v44" stroke="#f7f8fb" stroke-width="12" stroke-linecap="round"/>
  <path d="M534 204h136M534 304h112M534 338h186" stroke="#7f95cb" stroke-width="14" stroke-linecap="round"/>
  <text x="118" y="84" fill="#f2f5fb" font-family="Arial, sans-serif" font-size="28" font-weight="700">AI INTERVIEW MASTER</text>
  <text x="120" y="498" fill="#f4b94a" font-family="Arial, sans-serif" font-size="34" font-weight="800">STREAM / CODE / ATS / REPORT</text>
</svg>
